<?xml version="1.0" encoding="UTF-8"?>
<!DOCTYPE svg PUBLIC "-//W3C//DTD SVG 1.1//EN" "http://www.w3.org/Graphics/SVG/1.1/DTD/svg11.dtd">
<svg xmlns="http://www.w3.org/2000/svg" version="1.1" width="64px" height="64px" style="shape-rendering:geometricPrecision; text-rendering:geometricPrecision; image-rendering:optimizeQuality; fill-rule:evenodd; clip-rule:evenodd" xmlns:xlink="http://www.w3.org/1999/xlink">
<g><path style="opacity:0.95" fill="#1a1f35" d="M 23.5,-0.5 C 28.8333,-0.5 34.1667,-0.5 39.5,-0.5C 51.8421,3.17538 59.8421,11.1754 63.5,23.5C 63.5,28.8333 63.5,34.1667 63.5,39.5C 59.8421,51.8246 51.8421,59.8246 39.5,63.5C 34.1667,63.5 28.8333,63.5 23.5,63.5C 11.1579,59.8246 3.15795,51.8246 -0.5,39.5C -0.5,34.1667 -0.5,28.8333 -0.5,23.5C 3.15795,11.1754 11.1579,3.17538 23.5,-0.5 Z"/></g>
<g><path style="opacity:1" fill="#f3f3f4" d="M 32.5,44.5 C 32.5,45.1667 32.5,45.8333 32.5,46.5C 29.8333,46.5 27.1667,46.5 24.5,46.5C 24.5,44.5 24.5,42.5 24.5,40.5C 23.1667,40.5 21.8333,40.5 20.5,40.5C 20.5,42.5 20.5,44.5 20.5,46.5C 17.8333,46.5 15.1667,46.5 12.5,46.5C 13.3373,36.4706 14.504,26.4706 16,16.5C 19.8362,14.6112 24.0029,13.9445 28.5,14.5C 30.1137,24.4627 31.447,34.4627 32.5,44.5 Z"/></g>
<g><path style="opacity:1" fill="#b6b6ba" d="M 34.5,14.5 C 34.5,25.1667 34.5,35.8333 34.5,46.5C 33.8333,46.5 33.1667,46.5 32.5,46.5C 32.5,45.8333 32.5,45.1667 32.5,44.5C 33.1667,34.5 33.8333,24.5 34.5,14.5 Z"/></g>
<g><path style="opacity:1" fill="#f9f9f9" d="M 34.5,14.5 C 36.8333,14.5 39.1667,14.5 41.5,14.5C 41.3359,17.1873 41.5026,19.854 42,22.5C 45.5889,19.8144 48.9222,20.1478 52,23.5C 52.6667,30.1667 52.6667,36.8333 52,43.5C 51.1667,44.3333 50.3333,45.1667 49.5,46C 44.5377,45.4527 39.5377,45.6194 34.5,46.5C 34.5,35.8333 34.5,25.1667 34.5,14.5 Z"/></g>
<g><path style="opacity:1" fill="#7f8189" d="M 23.5,27.5 C 22.8333,27.8333 22.1667,28.1667 21.5,28.5C 21.2978,26.0108 21.7978,23.6775 23,21.5C 23.4955,23.4727 23.6621,25.4727 23.5,27.5 Z"/></g>
<g><path style="opacity:1" fill="#1a1f35" d="M 23.5,27.5 C 23.8134,30.2469 23.48,32.9135 22.5,35.5C 21.5258,33.2573 21.1924,30.924 21.5,28.5C 22.1667,28.1667 22.8333,27.8333 23.5,27.5 Z"/></g>
<g><path style="opacity:1" fill="#646673" d="M 41.5,25.5 C 42.5,25.5 43.5,25.5 44.5,25.5C 44.8282,30.8746 44.4948,36.2079 43.5,41.5C 42.914,41.2907 42.414,40.9574 42,40.5C 41.5007,35.5111 41.3341,30.5111 41.5,25.5 Z"/></g>
</svg>
